<?xml version="1.0" encoding="UTF-8" standalone="no"?>
<!-- Created with Inkscape (http://www.inkscape.org/) -->

<svg width="54.827145mm" height="20.208569mm" viewBox="0 0 54.827145 20.208569" version="1.1" id="svg5" xmlns="http://www.w3.org/2000/svg" xmlns:svg="http://www.w3.org/2000/svg">
  <defs id="defs2" />
  <path id="path13026" style="font-size:7.40833px;line-height:1.25;font-family:'Bebas Neue';-inkscape-font-specification:'Bebas Neue';letter-spacing:0px;word-spacing:0px;fill:#4d4d4d;stroke-width:0.264583" d="m 3.5036622,11.125403 c -0.7977963,0 -1.33273,0.118438 -1.6050701,0.355534 -0.2691361,0.233892 -0.4041097,0.704749 -0.4041097,1.412833 v 1.153935 c 0,0.477396 -0.0864,0.808939 -0.2594157,0.994772 -0.169812,0.182627 -0.4838893,0.273885 -0.9420614,0.273885 H 0 v 0.687296 h 0.2930053 c 0.4549681,0 0.7690454,0.0927 0.9420614,0.278536 0.1730161,0.185832 0.2594157,0.520786 0.2594157,1.00459 v 1.148767 c 0,0.708084 0.1349736,1.180388 0.4041097,1.417484 0.2723401,0.237097 0.8072738,0.355534 1.6050701,0.355534 H 3.8013184 V 19.516622 H 3.4747231 c -0.4517638,0 -0.7464115,-0.07038 -0.8841836,-0.211357 -0.137772,-0.140976 -0.2067057,-0.437587 -0.2067057,-0.889351 v -1.191659 c 0,-0.499823 -0.072344,-0.863405 -0.2165243,-1.090889 -0.14418,-0.227485 -0.3936641,-0.384781 -0.7493082,-0.471289 0.35244,-0.0801 0.6004773,-0.23347 0.7446574,-0.460954 0.147384,-0.227484 0.2211751,-0.593029 0.2211751,-1.096057 v -1.191659 c 0,-0.451764 0.068934,-0.748375 0.2067057,-0.889351 0.1377721,-0.140977 0.4324198,-0.211357 0.8841836,-0.211357 h 0.3265953 v -0.687296 z m 47.5221648,0 v 0.687296 h 0.336412 c 0.448559,0 0.740315,0.07038 0.874882,0.211357 0.137771,0.137772 0.206705,0.434383 0.206705,0.889351 v 1.191659 c 0,0.503028 0.07183,0.868573 0.216009,1.096057 0.144179,0.227484 0.394179,0.380854 0.749824,0.460954 -0.355645,0.08651 -0.605645,0.243804 -0.749824,0.471289 -0.144182,0.227484 -0.216009,0.591066 -0.216009,1.090889 v 1.191659 c 0,0.458172 -0.06893,0.75623 -0.206705,0.894002 -0.134567,0.137772 -0.426323,0.206706 -0.874882,0.206706 h -0.336412 v 0.691947 h 0.302823 c 0.797796,0 1.329836,-0.118437 1.595768,-0.355534 0.269134,-0.237096 0.403593,-0.7094 0.403593,-1.417484 v -1.148767 c 0,-0.483804 0.0864,-0.818758 0.259416,-1.00459 0.173014,-0.185833 0.487093,-0.278536 0.94206,-0.278536 h 0.297656 v -0.687296 h -0.297656 c -0.454967,0 -0.769046,-0.09126 -0.94206,-0.273885 -0.173016,-0.185833 -0.259416,-0.517376 -0.259416,-0.994772 V 12.89377 c 0,-0.708084 -0.134459,-1.178941 -0.403593,-1.412833 -0.265932,-0.237096 -0.797972,-0.355534 -1.595768,-0.355534 z m -40.121583,0.829923 -0.533301,0.867131 h 0.577742 l 0.799952,-0.867131 z m -5.6451336,1.059367 c -0.8000994,0 -1.2149129,0.474581 -1.2149129,1.304313 v 2.696477 c 0,0.829732 0.4148135,1.303796 1.2149129,1.303796 0.8000997,0 1.214913,-0.474064 1.214913,-1.303796 V 15.370622 H 5.3330077 v 0.74104 h 0.3705202 v 0.955497 c 0,0.370417 -0.1629053,0.503845 -0.4221965,0.503845 -0.2592916,0 -0.4221966,-0.133428 -0.4221966,-0.503845 v -2.800346 c 0,-0.370416 0.162905,-0.51108 0.4221966,-0.51108 0.2592912,0 0.4221965,0.140664 0.4221965,0.51108 v 0.555522 h 0.7704955 v -0.503329 c 0,-0.829732 -0.4148133,-1.304313 -1.214913,-1.304313 z m 5.5045736,0 c -0.8000996,0 -1.2371336,0.474581 -1.2371336,1.304313 v 2.696477 c 0,0.829732 0.437034,1.303796 1.2371336,1.303796 0.8001,0 1.237134,-0.474064 1.237134,-1.303796 v -2.696477 c 0,-0.829732 -0.437034,-1.304313 -1.237134,-1.304313 z m 26.010298,0 c -0.792692,0 -1.199925,0.474581 -1.199928,1.304313 0,1.481666 1.59267,1.681354 1.59267,2.748153 0,0.370417 -0.162906,0.503845 -0.422198,0.503845 -0.259289,0 -0.422196,-0.133428 -0.422196,-0.503845 v -0.555522 h -0.770495 v 0.503846 c 0,0.829732 0.414813,1.303796 1.214913,1.303796 0.8001,0 1.214911,-0.474064 1.214911,-1.303796 0,-1.481666 -1.592667,-1.68187 -1.592667,-2.74867 0,-0.370416 0.147918,-0.51108 0.407212,-0.51108 0.259289,0 0.407726,0.140664 0.407726,0.51108 v 0.326079 h 0.770496 v -0.273886 c 0,-0.829732 -0.407752,-1.304313 -1.200444,-1.304313 z m 2.822567,0 c -0.8001,0 -1.214914,0.474581 -1.214914,1.304313 v 2.696477 c 0,0.829732 0.414814,1.303796 1.214914,1.303796 0.8001,0 1.214914,-0.474064 1.214914,-1.303796 v -0.688847 h -0.770496 v 0.740523 c 0,0.370417 -0.162904,0.503845 -0.422198,0.503845 -0.259289,0 -0.422196,-0.133428 -0.422196,-0.503845 v -2.800346 c 0,-0.370416 0.162907,-0.51108 0.422196,-0.51108 0.259294,0 0.422198,0.140664 0.422198,0.51108 v 0.555522 h 0.770496 v -0.503329 c 0,-0.829732 -0.414814,-1.304313 -1.214914,-1.304313 z m -32.5297971,0.05943 v 3.355868 l -0.3627683,0.385504 v 0.740523 l 0.3627683,-0.384989 v 1.088822 H 9.2226924 V 17.519328 H 7.8816892 v -1.222665 l 0.8965862,-0.962731 v -0.74104 L 7.8816892,15.55614 v -2.482019 z m 5.2746131,0 0.577743,5.18573 h 1.118795 l 0.296622,-2.763139 0.296106,2.763139 h 1.081588 l 0.577742,-5.18573 H 15.578894 L 15.156697,17.19325 14.74897,13.074121 h -0.784965 l -0.39274,4.089673 -0.437183,-4.089673 z m 4.348572,0 v 5.18573 h 0.733806 V 14.50401 l 1.014925,3.755843 h 0.837158 v -5.18573 h -0.726054 v 3.104203 l -0.837158,-3.104203 z m 3.170866,0 v 5.18573 h 0.814937 v -5.18573 z m 1.407666,0 v 5.18573 h 2.222603 V 17.51933 h -1.407666 v -1.518771 h 1.118795 v -0.74104 h -1.118795 v -1.444356 h 1.407666 v -0.74104 z m 4.400765,0 v 3.955831 c 0,0.400049 -0.207864,0.49661 -0.467155,0.49661 -0.0889,0 -0.19222,1.66e-4 -0.28112,-0.0072 v 0.74052 c 0.13335,0.01482 0.244057,0.01499 0.392224,0.01499 0.614891,0 1.170989,-0.26663 1.170989,-1.303796 v -3.896921 z m 1.985407,0 -0.829921,5.18573 h 0.748273 l 0.14056,-0.940511 h 1.000456 l 0.14056,0.940511 h 0.822172 l -0.829406,-5.18573 z m 1.99988,0 0.800468,5.18573 h 1.214913 l 0.799949,-5.18573 h -0.748273 l -0.622184,4.230233 -0.622186,-4.230233 z m 3.623035,0 -0.829924,5.18573 h 0.748273 l 0.14056,-0.940511 h 1.000456 l 0.14056,0.940511 h 0.822174 l -0.829408,-5.18573 z m 8.030516,0 v 5.18573 h 0.814938 v -2.110982 h 0.28112 c 0.370417,0 0.533818,0.177333 0.533818,0.658874 v 0.814938 c 0,0.422275 0.02945,0.50382 0.0739,0.63717 h 0.829923 c -0.08149,-0.192616 -0.08888,-0.377536 -0.08888,-0.629419 v -0.800468 c 0,-0.540808 -0.133593,-0.933416 -0.541052,-1.103808 0.363009,-0.170391 0.533303,-0.518217 0.533303,-1.051616 v -0.407727 c 0,-0.800099 -0.362612,-1.192692 -1.207162,-1.192692 z m 2.978113,0 v 5.18573 h 0.814938 v -5.18573 z m 1.407666,0 v 5.18573 h 0.814937 v -1.948202 h 0.38499 c 0.814917,0 1.214911,-0.451842 1.214911,-1.281575 v -0.674377 c 0,-0.829733 -0.399994,-1.281576 -1.214911,-1.281576 z m 2.570387,0 v 0.74104 h 0.852144 v 4.44469 h 0.814937 v -4.44469 h 0.851628 v -0.74104 z m -37.500554,0.681612 c 0.259291,0 0.422196,0.140664 0.422196,0.51108 v 2.800346 c 0,0.370417 -0.162905,0.51108 -0.422196,0.51108 -0.259292,0 -0.422196,-0.140663 -0.422196,-0.51108 v -2.800346 c 0,-0.370416 0.162904,-0.51108 0.422196,-0.51108 z m 31.359326,0.05943 h 0.39274 c 0.288925,0 0.414446,0.162885 0.414446,0.533301 v 0.51108 c 0,0.414866 -0.185119,0.548287 -0.48886,0.548287 H 42.12301 Z m 4.385778,0 h 0.38499 c 0.259292,0 0.399976,0.118443 0.399976,0.488859 v 0.777731 c 0,0.370415 -0.140684,0.488859 -0.399976,0.488859 h -0.38499 z m -18.298625,0.177767 0.392742,2.622579 h -0.785482 z m 5.622914,0 0.39274,2.622579 h -0.785482 z" />
  <g id="g1" transform="translate(-2.0356236,-2.189738)">
    <path id="Letter_1" style="font-size:15.8939px;line-height:1.25;font-family:'Pixel Bit Advanced';-inkscape-font-specification:'Pixel Bit Advanced';letter-spacing:0px;word-spacing:0px;fill:#ff9c1e;stroke-width:0.349823" d="M 9.8229378,2.1898497 V 11.98474 H 17.169425 V 2.1898497 Z m 1.2245212,1.2242018 h 1.22452 v 2.448723 h 1.224203 V 4.6385728 h 1.22452 V 3.4140515 h 1.224202 v 1.2245213 h -1.224202 v 1.2242017 h -1.22452 v 1.2245213 h 1.22452 v 1.2242018 h 1.224202 V 9.5360189 H 14.720702 V 8.3114976 h -1.22452 V 7.0872958 h -1.224203 v 2.4487231 h -1.22452 z" />
    <path d="M 20.842542,8.3116545 V 4.6385034 h 2.448766 v 3.6731511 z m 3.673151,1.2243857 V 3.4141176 H 19.618156 V 9.5360402 Z M 18.393771,11.984812 V 2.189738 h 7.346308 v 9.795074 z" id="Letter_2" style="font-size:15.8939px;line-height:1.25;font-family:'Pixel Bit Advanced';-inkscape-font-specification:'Pixel Bit Advanced';letter-spacing:0px;word-spacing:0px;fill:#1e6bff;fill-opacity:1;stroke-width:0.349823" />
    <path id="Letter_3" style="font-size:15.8939px;line-height:1.25;font-family:'Pixel Bit Advanced';-inkscape-font-specification:'Pixel Bit Advanced';letter-spacing:0px;word-spacing:0px;fill:#ff1e7b;fill-opacity:1;stroke-width:0.349823" d="M 26.964315,2.1898497 V 11.98474 h 7.346488 V 2.1898497 Z m 1.224522,1.2242018 h 3.673242 v 1.2245213 h 1.224202 v 3.6729248 h -1.224202 v 1.2245213 h -3.673242 z m 3.673242,4.8974461 V 4.6385728 h -2.448723 v 3.6729248 z" />
    <path d="M 41.657075,9.5360402 V 3.4141176 H 40.43269 V 8.3116545 H 37.983918 V 3.4141176 H 36.759532 V 9.5360402 Z M 35.535153,11.984812 V 2.189738 h 7.346308 v 9.795074 z" id="Letter_4" style="font-size:15.8939px;line-height:1.25;font-family:'Pixel Bit Advanced';-inkscape-font-specification:'Pixel Bit Advanced';letter-spacing:0px;word-spacing:0px;fill:#79ff1e;fill-opacity:1;stroke-width:0.349823" />
    <path d="M 50.227763,9.5360402 V 3.4141176 h -4.897536 v 1.2243858 h 3.673151 V 8.3116545 H 46.554612 V 7.0872749 H 45.330227 V 9.5360402 Z M 44.105841,11.984812 V 2.189738 h 7.346308 v 9.795074 z" id="Letter_5" style="font-size:15.8939px;line-height:1.25;font-family:'Pixel Bit Advanced';-inkscape-font-specification:'Pixel Bit Advanced';letter-spacing:0px;word-spacing:0px;fill:#1effe9;fill-opacity:1;stroke-width:0.349823" />
  </g>
</svg>
